<svg width="6056" height="14638" viewBox="0 0 6056 14638" fill="none" xmlns="http://www.w3.org/2000/svg">
<g filter="url(#filter0_f_281_29)">
<path d="M2869.84 3286.42C2673.41 3282.32 2530.33 3124.36 2483.34 3045.9C2483.34 2970.84 2470.61 2796.16 2419.69 2697.9C2356.03 2575.08 1828.58 2769.55 1633.06 2851.43C1437.54 2933.31 1546.66 3163.6 1683.07 3491.12C1819.48 3818.64 1901.33 4002.87 1992.27 4105.22C2083.21 4207.57 2483.34 4253.63 2833.46 4161.51C3183.58 4069.4 3138.11 3757.23 3192.67 3491.12C3247.24 3225.01 3115.37 3291.54 2869.84 3286.42Z" fill="#A66FBC" fill-opacity="0.8"/>
<path d="M3320.76 3121.89C2756.93 3377.77 2847.87 3045.13 2711.47 3014.42V3045.13C2687.21 3034.89 2653.26 2991.91 2711.47 2901.84C2784.22 2789.25 2756.94 2901.84 2825.14 2901.84C2893.35 2901.84 2897.89 2881.37 3057.04 2825.07C3216.18 2768.78 3102.51 2809.72 3243.46 2692.02C3384.42 2574.32 3384.42 2523.14 3629.96 2241.68C3875.49 1960.21 3889.13 2236.56 4111.94 2241.68C4334.74 2246.8 4321.1 2420.79 4471.15 2666.43C4621.2 2912.07 4525.71 3152.6 4525.71 3444.29C4525.71 3735.99 4475.69 4099.34 4393.85 4846.49C4312 5593.65 4089.2 5153.54 3443.53 5199.6C2797.86 5245.66 2743.29 4923.25 2620.53 4662.26C2497.76 4401.27 2643.26 4437.09 2797.86 4339.86C2952.46 4242.63 3102.51 4298.92 3216.18 3894.63C3329.86 3490.35 3320.76 3669.46 3320.76 3408.47C3320.76 3147.48 3884.59 2866.01 3320.76 3121.89Z" fill="#57A6CE" fill-opacity="0.83"/>
<path d="M2508.95 2587.77C2450.02 2450.98 2004.37 2600.21 1746.56 2699.69C1729.37 2662.38 1688.37 2533.88 1661.85 2318.33C1628.7 2048.9 1661.85 1767.02 1695 1679.97C1728.14 1592.93 1746.56 1659.25 2074.35 1679.97C2402.14 1700.7 2475.8 1754.59 2777.82 1738.01C3079.83 1721.43 3079.83 1688.26 3359.74 1597.07C3639.65 1505.88 3639.65 1551.47 4037.42 1510.02C4435.19 1468.57 4243.67 1568.05 4365.21 1597.07C4486.76 1626.09 4298.92 2015.74 4276.82 2028.17C4254.72 2040.61 4063.2 1953.56 3842.22 1903.82C3621.24 1854.07 3514.43 2156.67 3448.13 2239.58C3381.84 2322.48 3182.95 2533.88 3002.48 2699.69C2822.01 2865.5 2803.6 2766.01 2715.2 2757.72C2626.81 2749.43 2567.88 2724.56 2508.95 2587.77Z" fill="#1D86FF" fill-opacity="0.59"/>
<path d="M2361.39 6880.79C2302.46 7017.58 1856.81 6868.36 1599 6768.87C1581.81 6806.18 1540.81 6934.68 1514.29 7150.23C1481.14 7419.67 1514.29 7701.54 1547.44 7788.59C1580.59 7875.64 1599 7809.32 1926.79 7788.59C2254.59 7767.86 2328.25 7713.98 2630.26 7730.56C2932.27 7747.14 2932.27 7780.3 3212.18 7871.49C3492.09 7962.69 3492.09 7917.09 3889.86 7958.54C4287.63 7999.99 4096.11 7900.51 4217.66 7871.49C4339.2 7842.48 4151.36 7452.83 4129.26 7440.39C4107.16 7427.96 3915.65 7515.01 3694.66 7564.75C3473.68 7614.49 3366.87 7311.89 3300.57 7228.99C3234.28 7146.08 3035.39 6934.68 2854.92 6768.87C2674.45 6603.06 2656.04 6702.55 2567.65 6710.84C2479.25 6719.13 2420.32 6744 2361.39 6880.79Z" fill="#1D86FF" fill-opacity="0.59"/>
<path d="M3843.2 5412.67C4486.67 5640.76 4031.53 5488.7 4277.41 5480.25V5412.67C4321.01 5435.2 4425.99 5507.29 4497.14 5615.42C4586.07 5750.59 4528.53 5987.13 4528.53 6147.64C4528.53 6308.15 4434.36 6468.66 4324.5 6831.92C4214.64 7195.19 3963.52 6992.43 3811.81 6612.28C3660.09 6232.12 3804.31 7140.46 3621.2 6667.38C3438.1 6194.29 3369.75 6743.41 3280.82 6667.38C3191.88 6591.35 2215.1 6626.31 2131.4 6719.23C2047.69 6812.16 2587.63 5902.65 2367.91 5835.07C2148.19 5767.48 2237.12 5733.69 2258.05 5184.58C2278.98 4635.46 2383.61 4897.35 2519.63 4584.77C2655.64 4272.2 2655.64 4322.89 2781.2 4263.75C2906.76 4204.61 2964.3 4390.47 3074.17 4432.71C3184.03 4474.95 3095.09 4508.74 3131.71 4787.52C3168.33 5066.3 3199.72 5184.58 3843.2 5412.67Z" fill="url(#paint0_linear_281_29)"/>
<path d="M3138.27 3025.63C3001.89 3023.11 2902.55 2925.66 2869.93 2877.26C2869.93 2830.96 2861.09 2723.2 2825.73 2662.59C2781.54 2586.82 2415.34 2706.79 2279.59 2757.3C2143.84 2807.81 2219.61 2949.87 2314.32 3151.91C2409.02 3353.95 2465.85 3467.6 2528.98 3530.74C2592.12 3593.88 2869.93 3622.29 3113.01 3565.46C3356.09 3508.64 3324.52 3316.07 3362.41 3151.91C3400.29 2987.75 3308.74 3028.79 3138.27 3025.63Z" fill="#716FBC" fill-opacity="0.4"/>
<path d="M2887.71 2594.65C2846.8 2510.27 2537.39 2602.32 2358.39 2663.69C2346.46 2640.68 2317.99 2561.41 2299.58 2428.44C2276.56 2262.23 2299.58 2088.35 2322.59 2034.65C2345.61 1980.95 2358.39 2021.86 2585.97 2034.65C2813.55 2047.43 2864.7 2080.68 3074.38 2070.45C3284.06 2060.22 3284.06 2039.76 3478.4 1983.51C3672.74 1927.25 3672.74 1955.38 3948.9 1929.81C4225.07 1904.24 4092.1 1965.61 4176.48 1983.51C4260.87 2001.41 4130.46 2241.77 4115.11 2249.44C4099.77 2257.11 3966.8 2203.42 3813.38 2172.73C3659.95 2142.05 3585.8 2328.71 3539.77 2379.86C3493.74 2431 3355.66 2561.41 3230.36 2663.69C3105.06 2765.98 3092.28 2704.61 3030.91 2699.49C2969.54 2694.38 2928.62 2679.03 2887.71 2594.65Z" fill="#1D86FF" fill-opacity="0.59"/>
<path d="M2785.26 5242.93C2744.35 5327.32 2434.94 5235.26 2255.94 5173.89C2244.01 5196.91 2215.54 5276.18 2197.13 5409.15C2174.12 5575.36 2197.13 5749.24 2220.14 5802.94C2243.16 5856.64 2255.94 5815.72 2483.53 5802.94C2711.11 5790.15 2762.25 5756.91 2971.93 5767.14C3181.61 5777.37 3181.61 5797.82 3375.95 5854.08C3570.29 5910.34 3570.29 5882.21 3846.45 5907.78C4122.62 5933.35 3989.65 5871.98 4074.04 5854.08C4158.42 5836.18 4028.01 5595.81 4012.67 5588.14C3997.32 5580.47 3864.35 5634.17 3710.93 5664.85C3557.5 5695.54 3483.35 5508.87 3437.32 5457.73C3391.29 5406.59 3253.21 5276.18 3127.91 5173.89C3002.61 5071.61 2989.83 5132.98 2928.46 5138.09C2867.09 5143.21 2826.18 5158.55 2785.26 5242.93Z" fill="#1D86FF" fill-opacity="0.59"/>
<path d="M3601.65 4337.28C4242.65 4477.99 3789.26 4384.18 4034.19 4378.97V4337.28C4077.62 4351.18 4182.2 4395.65 4253.07 4462.35C4341.67 4545.73 4284.34 4691.65 4284.34 4790.67C4284.34 4889.68 4190.54 4988.7 4081.1 5212.79C3971.66 5436.88 3721.51 5311.81 3570.38 5077.29C3419.25 4842.78 3518.27 4983.49 3335.87 4691.65C3153.47 4399.82 3205.59 4597.85 3116.99 4550.95C3028.93 4504.32 2894.51 4596.74 2811.01 4654.15L2809.52 4655.17C2726.14 4712.5 2350.92 4639.54 2132.04 4597.85C1913.16 4556.16 2001.76 4535.31 2022.6 4196.57C2043.45 3857.83 2147.68 4019.38 2283.17 3826.56C2418.67 3633.74 2418.67 3665.01 2543.74 3628.53C2668.81 3592.05 2726.14 3706.7 2835.58 3732.76C2945.02 3758.82 2856.42 3779.66 2892.9 3951.64C2929.38 4123.61 2960.65 4196.57 3601.65 4337.28Z" fill="url(#paint1_linear_281_29)" fill-opacity="0.8"/>
<path d="M3081.04 9316.22C2944.66 9312.88 2845.33 9183.97 2812.71 9119.93C2812.71 9058.68 2803.87 8916.12 2768.51 8835.94C2724.31 8735.71 2358.11 8894.41 2222.37 8961.23C2086.62 9028.05 2162.38 9215.99 2257.09 9483.27C2351.8 9750.56 2408.62 9900.91 2471.76 9984.43C2534.9 10068 2812.71 10105.5 3055.79 10030.4C3298.87 9955.2 3267.3 9700.44 3305.18 9483.27C3343.06 9266.1 3251.51 9320.4 3081.04 9316.22Z" fill="#716FBC" fill-opacity="0.4"/>
<path d="M3394.11 9181.95C3002.66 9390.77 3065.79 9119.3 2971.09 9094.25V9119.3C2954.25 9110.95 2930.68 9075.87 2971.09 9002.37C3021.6 8910.49 3002.66 9002.37 3050.01 9002.37C3097.36 9002.37 3100.52 8985.66 3211.01 8939.72C3321.5 8893.78 3242.58 8927.19 3340.44 8831.14C3438.31 8735.08 3438.31 8693.32 3608.78 8463.62C3779.25 8233.92 3788.72 8459.44 3943.41 8463.62C4098.1 8467.79 4088.63 8609.79 4192.81 8810.25C4296.98 9010.72 4230.69 9207.01 4230.69 9445.06C4230.69 9683.11 4195.96 9979.63 4139.14 10589.4C4082.32 11199.1 3927.63 10840 3479.35 10877.5C3031.07 10915.1 2993.19 10652 2907.95 10439C2822.71 10226 2923.73 10255.3 3031.07 10175.9C3138.4 10096.6 3242.58 10142.5 3321.5 9812.58C3400.43 9482.65 3394.11 9628.82 3394.11 9415.82C3394.11 9202.83 3785.57 8973.13 3394.11 9181.95Z" fill="#BEFAF3" fill-opacity="0.53"/>
<path d="M2830.49 8746.06C2789.57 8634.43 2480.16 8756.21 2301.17 8837.4C2289.24 8806.95 2260.77 8702.08 2242.35 8526.18C2219.34 8306.29 2242.36 8076.26 2265.37 8005.22C2288.38 7934.18 2301.17 7988.3 2528.75 8005.22C2756.33 8022.13 2807.47 8066.11 3017.15 8052.58C3226.84 8039.05 3226.84 8011.98 3421.17 7937.56C3615.51 7863.14 3615.51 7900.35 3891.68 7866.52C4167.84 7832.69 4034.88 7913.88 4119.26 7937.56C4203.64 7961.24 4073.23 8279.23 4057.89 8289.38C4042.55 8299.53 3909.58 8228.49 3756.15 8187.89C3602.73 8147.3 3528.57 8394.24 3482.54 8461.9C3436.52 8529.56 3298.43 8702.08 3173.14 8837.4C3047.84 8972.71 3035.05 8891.52 2973.68 8884.76C2912.31 8877.99 2871.4 8857.69 2830.49 8746.06Z" fill="#1D86FF" fill-opacity="0.59"/>
<path d="M2728.04 12249.5C2687.12 12361.2 2377.72 12239.4 2198.72 12158.2C2186.79 12188.7 2158.32 12293.5 2139.91 12469.4C2116.89 12689.3 2139.91 12919.3 2162.92 12990.4C2185.93 13061.4 2198.72 13007.3 2426.3 12990.4C2653.88 12973.5 2705.02 12929.5 2914.71 12943C3124.39 12956.6 3124.39 12983.6 3318.73 13058C3513.06 13132.5 3513.06 13095.3 3789.23 13129.1C4065.4 13162.9 3932.43 13081.7 4016.81 13058C4101.2 13034.4 3970.78 12716.4 3955.44 12706.2C3940.1 12696.1 3807.13 12767.1 3653.7 12807.7C3500.28 12848.3 3426.12 12601.4 3380.1 12533.7C3334.07 12466 3195.99 12293.5 3070.69 12158.2C2945.39 12022.9 2932.61 12104.1 2871.23 12110.8C2809.86 12117.6 2768.95 12137.9 2728.04 12249.5Z" fill="#1D86FF" fill-opacity="0.59"/>
<path d="M3544.43 11051.4C4185.43 11237.6 3732.04 11113.5 3976.97 11106.6V11051.4C4020.4 11069.8 4124.97 11128.6 4195.85 11216.9C4284.44 11327.2 4227.12 11520.2 4227.12 11651.2C4227.12 11782.2 4133.31 11913.2 4023.87 12209.7C3914.43 12506.1 3664.29 12340.7 3513.16 12030.4C3362.03 11720.2 3461.04 11906.3 3278.65 11520.2C3096.25 11134.2 3148.36 11396.1 3059.77 11334.1C2971.7 11272.4 2837.29 11394.7 2753.79 11470.6L2752.3 11472C2668.91 11547.8 2293.7 11451.3 2074.82 11396.1C1855.94 11341 1944.53 11313.4 1965.38 10865.3C1986.22 10417.2 2090.45 10630.9 2225.95 10375.8C2361.44 10120.7 2361.44 10162.1 2486.52 10113.8C2611.59 10065.5 2668.92 10217.2 2778.35 10251.7C2887.79 10286.2 2799.2 10313.7 2835.68 10541.3C2872.16 10768.8 2903.43 10865.3 3544.43 11051.4Z" fill="url(#paint2_linear_281_29)" fill-opacity="0.4"/>
</g>
<defs>
<filter id="filter0_f_281_29" x="0.55957" y="0.0610352" width="6055.1" height="14637.2" filterUnits="userSpaceOnUse" color-interpolation-filters="sRGB">
<feFlood flood-opacity="0" result="BackgroundImageFix"/>
<feBlend mode="normal" in="SourceGraphic" in2="BackgroundImageFix" result="shape"/>
<feGaussianBlur stdDeviation="750" result="effect1_foregroundBlur_281_29"/>
</filter>
<linearGradient id="paint0_linear_281_29" x1="2968.34" y1="4544.28" x2="6024.25" y2="11922.4" gradientUnits="userSpaceOnUse">
<stop stop-color="#FEBBBC" stop-opacity="0.4"/>
<stop offset="1" stop-color="#4F72E6"/>
</linearGradient>
<linearGradient id="paint1_linear_281_29" x1="2829.45" y1="6077.35" x2="6289" y2="10693.2" gradientUnits="userSpaceOnUse">
<stop stop-color="#BBFEEB" stop-opacity="0.4"/>
<stop offset="1" stop-color="#4FACE6"/>
</linearGradient>
<linearGradient id="paint2_linear_281_29" x1="2937.14" y1="10993.6" x2="3196.61" y2="12344.2" gradientUnits="userSpaceOnUse">
<stop stop-color="#BBFEEB" stop-opacity="0.4"/>
<stop offset="1" stop-color="#4FACE6"/>
</linearGradient>
</defs>
</svg>
