<svg width="136" height="52" viewBox="0 0 136 52" fill="none" xmlns="http://www.w3.org/2000/svg">
<path d="M48.7891 0.833008H62.7761V51.9578H48.7891V0.833008Z" fill="white"/>
<path d="M51.4087 26.3941C51.4087 40.512 39.9639 51.9568 25.846 51.9568C11.728 51.9568 0.283203 40.512 0.283203 26.3941C0.283203 12.2761 11.728 0.831299 25.846 0.831299C39.9639 0.831299 51.4087 12.2761 51.4087 26.3941Z" fill="white"/>
<path d="M117.853 51.9572V39.0973H118.971V40.9611H118.99C119.189 40.4641 119.605 39.9981 120.239 39.5633C120.872 39.1284 121.63 38.9109 122.512 38.9109C123.755 38.9109 124.811 39.3769 125.681 40.3088C126.551 41.2282 126.985 42.3775 126.985 43.7567C126.985 45.1359 126.551 46.2914 125.681 47.2233C124.811 48.1427 123.755 48.6025 122.512 48.6025C121.63 48.6025 120.872 48.385 120.239 47.9501C119.605 47.5153 119.189 47.0493 118.99 46.5523H118.971V51.9572H117.853ZM119.996 41.0356C119.313 41.7563 118.971 42.6633 118.971 43.7567C118.971 44.8501 119.313 45.7633 119.996 46.4964C120.692 47.2171 121.5 47.5774 122.419 47.5774C123.364 47.5774 124.171 47.2171 124.842 46.4964C125.526 45.7633 125.867 44.8501 125.867 43.7567C125.867 42.6633 125.526 41.7563 124.842 41.0356C124.171 40.3026 123.364 39.936 122.419 39.936C121.5 39.936 120.692 40.3026 119.996 41.0356Z" fill="white"/>
<path d="M106.86 44.5954V39.0973H107.978V44.5954C107.978 45.5521 108.208 46.2914 108.668 46.8133C109.14 47.3227 109.78 47.5774 110.587 47.5774C111.482 47.5774 112.234 47.2606 112.843 46.6269C113.451 45.9932 113.756 45.1918 113.756 44.2226V39.0973H114.874V48.4161H113.756V46.8319H113.737C113.489 47.304 113.091 47.7203 112.544 48.0806C111.998 48.4285 111.283 48.6025 110.401 48.6025C109.357 48.6025 108.506 48.2421 107.848 47.5215C107.189 46.8008 106.86 45.8255 106.86 44.5954Z" fill="white"/>
<path d="M96.3929 47.2233C95.4859 46.3038 95.0323 45.1483 95.0323 43.7567C95.0323 42.3651 95.4859 41.2096 96.3929 40.2901C97.2999 39.3707 98.4306 38.9109 99.7849 38.9109C101.139 38.9109 102.27 39.3707 103.177 40.2901C104.084 41.2096 104.537 42.3651 104.537 43.7567C104.537 45.1483 104.084 46.3038 103.177 47.2233C102.27 48.1427 101.139 48.6025 99.7849 48.6025C98.4306 48.6025 97.2999 48.1427 96.3929 47.2233ZM97.1943 41.017C96.4985 41.7376 96.1506 42.6509 96.1506 43.7567C96.1506 44.8625 96.4985 45.7758 97.1943 46.4964C97.8901 47.2171 98.7536 47.5774 99.7849 47.5774C100.816 47.5774 101.68 47.2171 102.376 46.4964C103.071 45.7758 103.419 44.8625 103.419 43.7567C103.419 42.6509 103.071 41.7376 102.376 41.017C101.68 40.2963 100.816 39.936 99.7849 39.936C98.7536 39.936 97.8901 40.2963 97.1943 41.017Z" fill="white"/>
<path d="M88.7866 48.4161V39.0973H89.9048V40.8679H89.9235C90.085 40.52 90.3024 40.2094 90.5758 39.936C91.197 39.3148 91.9985 39.0041 92.98 39.0041H94.0051V40.0292H92.98C92.0854 40.0292 91.3461 40.3336 90.7622 40.9424C90.1906 41.5388 89.9048 42.3216 89.9048 43.2908V48.4161H88.7866Z" fill="white"/>
<path d="M77.9725 47.2233C77.1027 46.2914 76.6679 45.1359 76.6679 43.7567C76.6679 42.3775 77.1027 41.2282 77.9725 40.3088C78.8422 39.3769 79.8984 38.9109 81.1409 38.9109C82.023 38.9109 82.7685 39.1284 83.3774 39.5633C83.9862 39.9857 84.4148 40.4516 84.6633 40.9611H84.682V39.0973H85.8002V51.9572H77.8793V50.9321H84.682V46.5523H84.6633C84.4148 47.0618 83.9862 47.5339 83.3774 47.9688C82.7685 48.3912 82.023 48.6025 81.1409 48.6025C79.8984 48.6025 78.8422 48.1427 77.9725 47.2233ZM78.7925 41.0356C78.1216 41.7563 77.7861 42.6633 77.7861 43.7567C77.7861 44.8501 78.1216 45.7633 78.7925 46.4964C79.4759 47.2171 80.2897 47.5774 81.234 47.5774C82.1535 47.5774 82.9549 47.2171 83.6383 46.4964C84.3341 45.7633 84.682 44.8501 84.682 43.7567C84.682 42.6633 84.3341 41.7563 83.6383 41.0356C82.9549 40.3026 82.1535 39.936 81.234 39.936C80.2897 39.936 79.4759 40.3026 78.7925 41.0356Z" fill="white"/>
<path d="M121.49 32.3133C120.621 31.3814 120.186 30.2259 120.186 28.8467C120.186 27.4675 120.621 26.3182 121.49 25.3988C122.36 24.4669 123.416 24.001 124.659 24.001C125.541 24.001 126.286 24.2184 126.895 24.6533C127.504 25.0757 127.933 25.5417 128.181 26.0511H128.2V24.1873H129.318V33.5061H128.2V31.6423H128.181C127.933 32.1518 127.504 32.6239 126.895 33.0588C126.286 33.4812 125.541 33.6925 124.659 33.6925C123.416 33.6925 122.36 33.2327 121.49 32.3133ZM122.31 26.1256C121.639 26.8463 121.304 27.7533 121.304 28.8467C121.304 29.9401 121.639 30.8533 122.31 31.5864C122.994 32.3071 123.808 32.6674 124.752 32.6674C125.671 32.6674 126.473 32.3071 127.156 31.5864C127.852 30.8533 128.2 29.9401 128.2 28.8467C128.2 27.7533 127.852 26.8463 127.156 26.1256C126.473 25.3926 125.671 25.026 124.752 25.026C123.808 25.026 122.994 25.3926 122.31 26.1256Z" fill="white"/>
<path d="M116.706 21.9881C116.544 21.8266 116.463 21.6278 116.463 21.3917C116.463 21.1556 116.544 20.9568 116.706 20.7953C116.867 20.6338 117.066 20.553 117.302 20.553C117.538 20.553 117.737 20.6338 117.898 20.7953C118.06 20.9568 118.141 21.1556 118.141 21.3917C118.141 21.6278 118.06 21.8266 117.898 21.9881C117.737 22.1496 117.538 22.2304 117.302 22.2304C117.066 22.2304 116.867 22.1496 116.706 21.9881ZM116.743 33.5061V24.1873H117.861V33.5061H116.743Z" fill="white"/>
<path d="M105.929 32.3133C105.059 31.3814 104.624 30.2259 104.624 28.8467C104.624 27.4675 105.059 26.3182 105.929 25.3988C106.798 24.4669 107.855 24.001 109.097 24.001C109.979 24.001 110.725 24.2184 111.334 24.6533C111.942 25.0757 112.371 25.5417 112.62 26.0511H112.638V20.4598H113.756V33.5061H112.638V31.6423H112.62C112.371 32.1518 111.942 32.6239 111.334 33.0588C110.725 33.4812 109.979 33.6925 109.097 33.6925C107.855 33.6925 106.798 33.2327 105.929 32.3133ZM106.749 26.1256C106.078 26.8463 105.742 27.7533 105.742 28.8467C105.742 29.9401 106.078 30.8533 106.749 31.5864C107.432 32.3071 108.246 32.6674 109.19 32.6674C110.11 32.6674 110.911 32.3071 111.595 31.5864C112.29 30.8533 112.638 29.9401 112.638 28.8467C112.638 27.7533 112.29 26.8463 111.595 26.1256C110.911 25.3926 110.11 25.026 109.19 25.026C108.246 25.026 107.432 25.3926 106.749 26.1256Z" fill="white"/>
<path d="M94.9728 32.3133C94.0782 31.3938 93.6309 30.2383 93.6309 28.8467C93.6309 27.4551 94.0782 26.2996 94.9728 25.3801C95.8674 24.4607 96.9732 24.001 98.2903 24.001C99.5949 24.001 100.695 24.4607 101.589 25.3801C102.496 26.2872 102.95 27.4116 102.95 28.7535V29.2195H94.7491C94.7988 30.201 95.1592 31.0211 95.8301 31.6796C96.5011 32.3381 97.3211 32.6674 98.2903 32.6674C99.3588 32.6674 100.235 32.3257 100.918 31.6423C101.241 31.3441 101.484 31.0024 101.645 30.6173H102.763C102.54 31.2012 102.223 31.7169 101.813 32.1642C100.893 33.183 99.7191 33.6925 98.2903 33.6925C96.9732 33.6925 95.8674 33.2327 94.9728 32.3133ZM94.7491 28.1944H101.738C101.639 27.2874 101.266 26.5357 100.62 25.9393C99.9863 25.3304 99.2097 25.026 98.2903 25.026C97.3708 25.026 96.588 25.3242 95.9419 25.9206C95.2958 26.517 94.8982 27.2749 94.7491 28.1944Z" fill="white"/>
<path d="M77.3202 33.5061V24.1873H78.4384V25.7715H78.4571C78.6559 25.436 78.8981 25.1441 79.1839 24.8956C79.8549 24.2992 80.6625 24.001 81.6068 24.001C82.5262 24.001 83.3028 24.3426 83.9365 25.026C84.1974 25.3242 84.4148 25.6659 84.5888 26.0511H84.682C84.8311 25.7156 85.0796 25.3739 85.4275 25.026C86.1606 24.3426 87.0614 24.001 88.1299 24.001C89.0866 24.001 89.8818 24.3613 90.5155 25.0819C91.1616 25.8026 91.4847 26.7779 91.4847 28.008V33.5061H90.3664V28.008C90.3664 27.0513 90.1428 26.3182 89.6955 25.8088C89.2606 25.2869 88.6766 25.026 87.9436 25.026C87.1483 25.026 86.4526 25.3304 85.8562 25.9393C85.2598 26.5357 84.9615 27.2563 84.9615 28.1012V33.5061H83.8433V28.008C83.8433 27.0513 83.6196 26.3182 83.1723 25.8088C82.7375 25.2869 82.1535 25.026 81.4204 25.026C80.6252 25.026 79.9294 25.3304 79.333 25.9393C78.7366 26.5357 78.4384 27.2563 78.4384 28.1012V33.5061H77.3202Z" fill="white"/>
<path d="M128.029 18.5961V5.76416H130.67V7.65121H130.796C130.981 7.29896 131.249 6.96348 131.601 6.64478C132.373 5.97383 133.279 5.63836 134.319 5.63836H135.828V8.15442H134.193C133.17 8.15442 132.323 8.48151 131.652 9.13569C130.998 9.77309 130.67 10.6202 130.67 11.6769V18.5961H128.029Z" fill="white"/>
<path d="M114.566 16.9355C113.308 15.6439 112.679 14.0588 112.679 12.1801C112.679 10.3015 113.308 8.72473 114.566 7.44992C115.841 6.15834 117.392 5.51255 119.22 5.51255C121.049 5.51255 122.592 6.15834 123.85 7.44992C125.125 8.72473 125.762 10.3015 125.762 12.1801V13.0607H115.321C115.522 14.1175 115.983 14.9478 116.704 15.5516C117.426 16.1555 118.264 16.4574 119.22 16.4574C120.395 16.4574 121.334 16.1639 122.038 15.5768C122.357 15.342 122.634 15.0484 122.869 14.6962H125.636C125.284 15.5181 124.84 16.2142 124.303 16.7845C122.927 18.16 121.233 18.8477 119.22 18.8477C117.392 18.8477 115.841 18.2103 114.566 16.9355ZM115.446 10.9221H122.995C122.844 10.0834 122.441 9.37052 121.787 8.78344C121.149 8.19635 120.294 7.90281 119.22 7.90281C118.315 7.90281 117.51 8.17958 116.805 8.73312C116.101 9.26988 115.648 9.99953 115.446 10.9221Z" fill="white"/>
<path d="M104.245 8.15442V5.76416H105.755V0.983643H112.171V3.3739H108.396V5.76416H111.416V8.15442H108.396V18.5961H105.755V8.15442H104.245Z" fill="white"/>
<path d="M91.5447 14.5704H94.4382C94.5556 14.9059 94.7653 15.2246 95.0672 15.5265C95.6878 16.1471 96.5265 16.4574 97.5833 16.4574C98.5058 16.4574 99.1768 16.3148 99.5961 16.0297C100.015 15.7445 100.225 15.3839 100.225 14.9478C100.225 14.7968 100.192 14.6626 100.124 14.5452C100.057 14.411 99.94 14.2936 99.7722 14.193C99.6045 14.0923 99.4452 14.0085 99.2942 13.9414C99.1432 13.8575 98.9168 13.782 98.6149 13.7149C98.3129 13.6311 98.0697 13.5723 97.8852 13.5388C97.7007 13.4885 97.4155 13.4214 97.0297 13.3375C96.6607 13.2536 96.384 13.1949 96.1994 13.1614C93.5156 12.5575 92.1737 11.266 92.1737 9.28665C92.1737 8.28022 92.635 7.3996 93.5576 6.64478C94.4801 5.88996 95.6962 5.51255 97.2059 5.51255C99.3026 5.51255 100.871 6.18351 101.911 7.52541C102.381 8.11249 102.699 8.78344 102.867 9.53825H100.099C99.9651 9.20278 99.7806 8.9344 99.5458 8.73312C98.9587 8.17958 98.1787 7.90281 97.2059 7.90281C96.451 7.90281 95.8807 8.037 95.4949 8.30538C95.1259 8.57376 94.9414 8.90924 94.9414 9.31181C94.9414 9.46277 94.975 9.60535 95.0421 9.73954C95.1091 9.85696 95.2266 9.96599 95.3943 10.0666C95.562 10.1673 95.7214 10.2511 95.8724 10.3182C96.0401 10.3853 96.2665 10.4608 96.5517 10.5447C96.8369 10.6118 97.0801 10.6705 97.2814 10.7208C97.4826 10.7544 97.7594 10.8131 98.1117 10.8969C98.4807 10.964 98.7658 11.0227 98.9671 11.0731C101.651 11.6769 102.993 12.9685 102.993 14.9478C102.993 16.0213 102.506 16.9439 101.533 17.7155C100.577 18.4703 99.2607 18.8477 97.5833 18.8477C95.4027 18.8477 93.7337 18.1348 92.5763 16.709C92.0563 16.0549 91.7125 15.342 91.5447 14.5704Z" fill="white"/>
<path d="M78.2949 17.011C77.1543 15.7697 76.584 14.1594 76.584 12.1801C76.584 10.2008 77.1543 8.59893 78.2949 7.37444C79.4523 6.13318 80.8948 5.51255 82.6225 5.51255C83.7128 5.51255 84.7109 5.83126 85.6167 6.46866C86.0024 6.73704 86.3463 7.04735 86.6482 7.3996H86.774V5.76416H89.4159V18.5961H86.774V16.8348H86.6482C86.3966 17.1871 86.0528 17.5226 85.6167 17.8413C84.7109 18.5122 83.7128 18.8477 82.6225 18.8477C80.8948 18.8477 79.4523 18.2354 78.2949 17.011ZM80.3581 9.00988C79.6871 9.74793 79.3517 10.8047 79.3517 12.1801C79.3517 13.5556 79.6871 14.6123 80.3581 15.3504C81.029 16.0884 81.9516 16.4574 83.1257 16.4574C84.2328 16.4574 85.1134 16.0884 85.7676 15.3504C86.4386 14.5955 86.774 13.5388 86.774 12.1801C86.774 10.8214 86.4386 9.77309 85.7676 9.03504C85.1134 8.28022 84.2328 7.90281 83.1257 7.90281C81.9516 7.90281 81.029 8.27184 80.3581 9.00988Z" fill="white"/>
</svg>
